
<svg width="180" height="48" viewBox="0 0 180 48" fill="none" xmlns="http://www.w3.org/2000/svg">
  <path d="M34 12H14C11.7909 12 10 13.7909 10 16V36C10 38.2091 11.7909 40 14 40H34C36.2091 40 38 38.2091 38 36V16C38 13.7909 36.2091 12 34 12Z" fill="#1D4ED8" stroke="#1D4ED8" stroke-width="2"/>
  <path d="M16 8H36C38.2091 8 40 9.79086 40 12V32C40 34.2091 38.2091 36 36 36H16" stroke="#1D4ED8" stroke-width="2" stroke-linecap="round"/>
  <path d="M49.5 32V16H65.5V19.424H53.348V22.464H64.34V25.888H53.348V32H49.5Z" fill="#1E3A8A"/>
  <path d="M67.2473 32V16H79.0713C80.6153 16 81.9073 16.272 82.9473 16.816C84.0033 17.36 84.7953 18.112 85.3233 19.072C85.8673 20.032 86.1393 21.104 86.1393 22.288C86.1393 23.472 85.8673 24.544 85.3233 25.504C84.7953 26.448 84.0033 27.192 82.9473 27.736C81.9073 28.28 80.6153 28.552 79.0713 28.552H71.0953V32H67.2473ZM71.0953 25.128H78.7193C79.7753 25.128 80.5833 24.856 81.1433 24.312C81.7193 23.768 82.0073 23.072 82.0073 22.224C82.0073 21.376 81.7193 20.688 81.1433 20.16C80.5833 19.616 79.7753 19.344 78.7193 19.344H71.0953V25.128Z" fill="#1E3A8A"/>
  <path d="M94.6255 32.32C92.8655 32.32 91.3855 31.968 90.1855 31.264C88.9855 30.56 88.0655 29.608 87.4255 28.408C86.7855 27.192 86.4655 25.824 86.4655 24.304V16H90.3135V24.064C90.3135 25.376 90.6815 26.4 91.4175 27.136C92.1695 27.856 93.2255 28.216 94.5935 28.216C95.9615 28.216 97.0175 27.856 97.7535 27.136C98.5055 26.4 98.8815 25.376 98.8815 24.064V16H102.729V24.304C102.729 25.824 102.409 27.192 101.769 28.408C101.129 29.608 100.209 30.56 99.0095 31.264C97.8095 31.968 96.3375 32.32 94.6255 32.32Z" fill="#1E3A8A"/>
  <path d="M112.271 32.32C110.671 32.32 109.239 31.984 107.975 31.312C106.727 30.624 105.751 29.664 105.047 28.432C104.343 27.184 103.991 25.76 103.991 24.16C103.991 22.56 104.343 21.144 105.047 19.912C105.751 18.664 106.727 17.704 107.975 17.032C109.239 16.344 110.671 16 112.271 16C113.871 16 115.295 16.344 116.543 17.032C117.791 17.704 118.767 18.664 119.471 19.912C120.175 21.144 120.527 22.56 120.527 24.16C120.527 25.76 120.175 27.184 119.471 28.432C118.767 29.664 117.791 30.624 116.543 31.312C115.295 31.984 113.871 32.32 112.271 32.32ZM112.271 28.6C113.407 28.6 114.319 28.208 115.007 27.424C115.695 26.624 116.039 25.536 116.039 24.16C116.039 22.784 115.695 21.704 115.007 20.92C114.319 20.12 113.407 19.72 112.271 19.72C111.119 19.72 110.199 20.12 109.511 20.92C108.823 21.704 108.479 22.784 108.479 24.16C108.479 25.536 108.823 26.624 109.511 27.424C110.199 28.208 111.119 28.6 112.271 28.6Z" fill="#1E3A8A"/>
  <path d="M128.51 32.32C126.91 32.32 125.478 31.984 124.214 31.312C122.966 30.624 121.99 29.664 121.286 28.432C120.582 27.184 120.23 25.76 120.23 24.16C120.23 22.56 120.582 21.144 121.286 19.912C121.99 18.664 122.966 17.704 124.214 17.032C125.478 16.344 126.91 16 128.51 16C130.11 16 131.534 16.344 132.782 17.032C134.03 17.704 135.006 18.664 135.71 19.912C136.414 21.144 136.766 22.56 136.766 24.16C136.766 25.76 136.414 27.184 135.71 28.432C135.006 29.664 134.03 30.624 132.782 31.312C131.534 31.984 130.11 32.32 128.51 32.32ZM128.51 28.6C129.646 28.6 130.558 28.208 131.246 27.424C131.934 26.624 132.278 25.536 132.278 24.16C132.278 22.784 131.934 21.704 131.246 20.92C130.558 20.12 129.646 19.72 128.51 19.72C127.358 19.72 126.438 20.12 125.75 20.92C125.062 21.704 124.718 22.784 124.718 24.16C124.718 25.536 125.062 26.624 125.75 27.424C126.438 28.208 127.358 28.6 128.51 28.6Z" fill="#1E3A8A"/>
  <path d="M138.874 32V16H149.378C150.922 16 152.234 16.24 153.314 16.72C154.41 17.184 155.226 17.848 155.754 18.712C156.282 19.576 156.546 20.576 156.546 21.712C156.546 22.848 156.282 23.848 155.754 24.712C155.226 25.576 154.41 26.248 153.314 26.728C152.234 27.192 150.922 27.424 149.378 27.424H142.722V32H138.874ZM142.722 24.088H149.026C150.114 24.088 150.946 23.832 151.522 23.32C152.114 22.792 152.41 22.088 152.41 21.208C152.41 20.328 152.114 19.632 151.522 19.12C150.946 18.592 150.114 18.328 149.026 18.328H142.722V24.088Z" fill="#1E3A8A"/>
  <path d="M165.416 32.32C163.752 32.32 162.28 31.976 161 31.288C159.72 30.6 158.72 29.648 158 28.432C157.296 27.2 156.944 25.776 156.944 24.16C156.944 22.544 157.296 21.128 158 19.912C158.72 18.68 159.72 17.728 161 17.056C162.28 16.368 163.752 16.024 165.416 16.024C167.016 16.024 168.416 16.344 169.616 16.984C170.832 17.624 171.76 18.536 172.4 19.72L169.28 21.52C168.8 20.752 168.2 20.184 167.48 19.816C166.776 19.432 166.048 19.24 165.296 19.24C164.096 19.24 163.144 19.648 162.44 20.464C161.736 21.28 161.384 22.48 161.384 24.064C161.384 25.648 161.736 26.856 162.44 27.688C163.144 28.504 164.096 28.912 165.296 28.912C166.048 28.912 166.776 28.728 167.48 28.36C168.2 27.976 168.8 27.4 169.28 26.632L172.4 28.432C171.76 29.616 170.832 30.536 169.616 31.192C168.416 31.944 167.016 32.32 165.416 32.32Z" fill="#1E3A8A"/>
</svg>
